<?xml version="1.0" standalone="no"?>
<!DOCTYPE svg PUBLIC "-//W3C//DTD SVG 20010904//EN"
 "http://www.w3.org/TR/2001/REC-SVG-20010904/DTD/svg10.dtd">
<svg version="1.0" xmlns="http://www.w3.org/2000/svg"
 width="512.000000pt" height="512.000000pt" viewBox="0 0 512.000000 512.000000"
 preserveAspectRatio="xMidYMid meet">

<g transform="translate(0.000000,512.000000) scale(0.100000,-0.100000)"
fill="#000000" stroke="none">
<path d="M0 3973 c0 -1099 1 -1147 18 -1114 9 19 28 43 42 53 14 9 1085 422
2380 916 1295 495 2384 911 2420 925 96 37 105 39 147 28 37 -10 95 -60 106
-91 3 -8 6 85 6 208 l1 222 -2560 0 -2560 0 0 -1147z"/>
<path d="M5110 4585 c0 -21 -1224 -4015 -1236 -4033 -39 -60 -138 -81 -201
-42 -18 11 -330 240 -694 511 -364 270 -668 493 -675 496 -8 3 -105 -179 -290
-549 -153 -304 -291 -567 -307 -585 -58 -66 -157 -64 -216 2 -17 20 -32 37
-33 38 -2 1 -5 387 -8 857 l-5 855 -688 266 c-378 146 -697 275 -708 285 -12
10 -28 33 -35 49 -11 25 -13 -196 -14 -1352 l0 -1383 2560 0 2560 0 0 2295 c0
1262 -2 2295 -5 2295 -3 0 -5 -2 -5 -5z"/>
</g>
</svg>
